<mxfile host="Electron" modified="2024-01-11T18:31:46.437Z" agent="Mozilla/5.0 (Windows NT 10.0; Win64; x64) AppleWebKit/537.36 (KHTML, like Gecko) draw.io/22.1.16 Chrome/120.0.6099.109 Electron/28.1.0 Safari/537.36" etag="BR5AtpHwYoP95kESJ03E" version="22.1.16" type="device">
  <diagram name="Seite-1" id="BCFiguD9-vjMtI59VHOu">
    <mxGraphModel dx="893" dy="519" grid="1" gridSize="10" guides="1" tooltips="1" connect="1" arrows="1" fold="1" page="1" pageScale="1" pageWidth="1169" pageHeight="827" math="0" shadow="0">
      <root>
        <mxCell id="0" />
        <mxCell id="1" parent="0" />
        <mxCell id="JgdXT-zgAxA5LGtq6RWP-9" style="edgeStyle=orthogonalEdgeStyle;rounded=0;orthogonalLoop=1;jettySize=auto;html=1;curved=1;" edge="1" parent="1" source="JgdXT-zgAxA5LGtq6RWP-1" target="JgdXT-zgAxA5LGtq6RWP-2">
          <mxGeometry relative="1" as="geometry" />
        </mxCell>
        <mxCell id="JgdXT-zgAxA5LGtq6RWP-10" value="Kursverwaltung, &lt;br&gt;Fortschritt, &lt;br&gt;Aufgaben" style="edgeLabel;html=1;align=center;verticalAlign=middle;resizable=0;points=[];labelBackgroundColor=none;" vertex="1" connectable="0" parent="JgdXT-zgAxA5LGtq6RWP-9">
          <mxGeometry x="-0.1986" y="-2" relative="1" as="geometry">
            <mxPoint x="16" y="-43" as="offset" />
          </mxGeometry>
        </mxCell>
        <mxCell id="JgdXT-zgAxA5LGtq6RWP-18" style="edgeStyle=orthogonalEdgeStyle;rounded=0;orthogonalLoop=1;jettySize=auto;html=1;curved=1;exitX=1;exitY=1;exitDx=0;exitDy=0;" edge="1" parent="1" source="JgdXT-zgAxA5LGtq6RWP-1" target="JgdXT-zgAxA5LGtq6RWP-4">
          <mxGeometry relative="1" as="geometry" />
        </mxCell>
        <mxCell id="JgdXT-zgAxA5LGtq6RWP-21" value="Benutzeranfragen" style="edgeLabel;html=1;align=center;verticalAlign=middle;resizable=0;points=[];labelBackgroundColor=none;" vertex="1" connectable="0" parent="JgdXT-zgAxA5LGtq6RWP-18">
          <mxGeometry x="0.6013" y="-13" relative="1" as="geometry">
            <mxPoint x="-85" y="-36" as="offset" />
          </mxGeometry>
        </mxCell>
        <mxCell id="JgdXT-zgAxA5LGtq6RWP-1" value="OrganisationApp" style="ellipse;whiteSpace=wrap;html=1;aspect=fixed;fillColor=#d5e8d4;strokeColor=#82b366;" vertex="1" parent="1">
          <mxGeometry x="290" y="170" width="110" height="110" as="geometry" />
        </mxCell>
        <mxCell id="JgdXT-zgAxA5LGtq6RWP-7" style="edgeStyle=orthogonalEdgeStyle;rounded=0;orthogonalLoop=1;jettySize=auto;html=1;curved=1;" edge="1" parent="1" source="JgdXT-zgAxA5LGtq6RWP-2" target="JgdXT-zgAxA5LGtq6RWP-1">
          <mxGeometry relative="1" as="geometry" />
        </mxCell>
        <mxCell id="JgdXT-zgAxA5LGtq6RWP-8" value="Kursanmeldung, &lt;br&gt;Aufgaben" style="edgeLabel;html=1;align=center;verticalAlign=middle;resizable=0;points=[];labelBackgroundColor=none;" vertex="1" connectable="0" parent="JgdXT-zgAxA5LGtq6RWP-7">
          <mxGeometry x="-0.027" relative="1" as="geometry">
            <mxPoint x="-7" y="-4" as="offset" />
          </mxGeometry>
        </mxCell>
        <mxCell id="JgdXT-zgAxA5LGtq6RWP-2" value="Student" style="rounded=0;whiteSpace=wrap;html=1;fillColor=#ffe6cc;strokeColor=#d79b00;" vertex="1" parent="1">
          <mxGeometry x="90" y="60" width="120" height="60" as="geometry" />
        </mxCell>
        <mxCell id="JgdXT-zgAxA5LGtq6RWP-16" style="edgeStyle=orthogonalEdgeStyle;rounded=0;orthogonalLoop=1;jettySize=auto;html=1;curved=1;" edge="1" parent="1" source="JgdXT-zgAxA5LGtq6RWP-3" target="JgdXT-zgAxA5LGtq6RWP-1">
          <mxGeometry relative="1" as="geometry">
            <Array as="points">
              <mxPoint x="320" y="320" />
            </Array>
          </mxGeometry>
        </mxCell>
        <mxCell id="JgdXT-zgAxA5LGtq6RWP-20" value="Studentinfos, &lt;br&gt;RÃ¼ckmeldung,&lt;br&gt;Bescheinigungen" style="edgeLabel;html=1;align=center;verticalAlign=middle;resizable=0;points=[];labelBackgroundColor=none;" vertex="1" connectable="0" parent="JgdXT-zgAxA5LGtq6RWP-16">
          <mxGeometry x="-0.5642" y="2" relative="1" as="geometry">
            <mxPoint x="4" y="-23" as="offset" />
          </mxGeometry>
        </mxCell>
        <mxCell id="JgdXT-zgAxA5LGtq6RWP-3" value="HM-Primuss" style="rounded=0;whiteSpace=wrap;html=1;fillColor=#ffe6cc;strokeColor=#d79b00;" vertex="1" parent="1">
          <mxGeometry x="30" y="290" width="120" height="60" as="geometry" />
        </mxCell>
        <mxCell id="JgdXT-zgAxA5LGtq6RWP-17" style="edgeStyle=orthogonalEdgeStyle;rounded=0;orthogonalLoop=1;jettySize=auto;html=1;curved=1;" edge="1" parent="1" source="JgdXT-zgAxA5LGtq6RWP-4" target="JgdXT-zgAxA5LGtq6RWP-1">
          <mxGeometry relative="1" as="geometry" />
        </mxCell>
        <mxCell id="JgdXT-zgAxA5LGtq6RWP-4" value="HM-ChatGPT" style="rounded=0;whiteSpace=wrap;html=1;fillColor=#ffe6cc;strokeColor=#d79b00;" vertex="1" parent="1">
          <mxGeometry x="490" y="340" width="120" height="60" as="geometry" />
        </mxCell>
        <mxCell id="JgdXT-zgAxA5LGtq6RWP-23" style="edgeStyle=orthogonalEdgeStyle;rounded=0;orthogonalLoop=1;jettySize=auto;html=1;curved=1;" edge="1" parent="1" source="JgdXT-zgAxA5LGtq6RWP-5" target="JgdXT-zgAxA5LGtq6RWP-1">
          <mxGeometry relative="1" as="geometry" />
        </mxCell>
        <mxCell id="JgdXT-zgAxA5LGtq6RWP-24" value="Kursinformationen" style="edgeLabel;html=1;align=center;verticalAlign=middle;resizable=0;points=[];labelBackgroundColor=none;" vertex="1" connectable="0" parent="JgdXT-zgAxA5LGtq6RWP-23">
          <mxGeometry x="-0.4025" y="3" relative="1" as="geometry">
            <mxPoint x="4" y="-11" as="offset" />
          </mxGeometry>
        </mxCell>
        <mxCell id="JgdXT-zgAxA5LGtq6RWP-5" value="HM-Moodle" style="rounded=0;whiteSpace=wrap;html=1;fillColor=#ffe6cc;strokeColor=#d79b00;" vertex="1" parent="1">
          <mxGeometry x="550" y="150" width="120" height="60" as="geometry" />
        </mxCell>
        <mxCell id="JgdXT-zgAxA5LGtq6RWP-13" style="edgeStyle=orthogonalEdgeStyle;rounded=0;orthogonalLoop=1;jettySize=auto;html=1;curved=1;entryX=1;entryY=0;entryDx=0;entryDy=0;" edge="1" parent="1" source="JgdXT-zgAxA5LGtq6RWP-6" target="JgdXT-zgAxA5LGtq6RWP-1">
          <mxGeometry relative="1" as="geometry" />
        </mxCell>
        <mxCell id="JgdXT-zgAxA5LGtq6RWP-14" value="Module" style="edgeLabel;html=1;align=center;verticalAlign=middle;resizable=0;points=[];labelBackgroundColor=none;" vertex="1" connectable="0" parent="JgdXT-zgAxA5LGtq6RWP-13">
          <mxGeometry x="-0.3986" y="4" relative="1" as="geometry">
            <mxPoint x="17" y="-8" as="offset" />
          </mxGeometry>
        </mxCell>
        <mxCell id="JgdXT-zgAxA5LGtq6RWP-6" value="HM-ZPA" style="rounded=0;whiteSpace=wrap;html=1;fillColor=#ffe6cc;strokeColor=#d79b00;" vertex="1" parent="1">
          <mxGeometry x="500" y="50" width="120" height="60" as="geometry" />
        </mxCell>
        <mxCell id="JgdXT-zgAxA5LGtq6RWP-22" value="KI-Antworten" style="edgeLabel;html=1;align=center;verticalAlign=middle;resizable=0;points=[];labelBackgroundColor=none;" vertex="1" connectable="0" parent="1">
          <mxGeometry x="437.0044827586207" y="355.0039763032073" as="geometry" />
        </mxCell>
      </root>
    </mxGraphModel>
  </diagram>
</mxfile>
